<svg xmlns="http://www.w3.org/2000/svg" width="254.769" height="237.764" viewBox="0 0 238.84591 222.90334"><g style="line-height:125%"><path d="M24.85 218.572q-.612.044-1.312.088h-10.72Q0 218.66 0 210.216V196.74q0-8.269 12.6-8.269h9.756q12.6 0 12.6 8.269v13.475q0 5.031-4.462 7.044l3.106 2.143q1.356.832 1.356 1.707 0 .875-.7 1.312-.656.481-1.881.481-.306 0-.787-.13-.438-.088-1.05-.482l-5.688-3.719zm5.381-21.744q0-4.768-7.962-4.768h-9.581q-7.963 0-7.963 4.768v13.388q0 4.944 8.313 4.944h8.88q8.313 0 8.313-4.944v-13.388zm29.292 21.919q-11.288 0-11.288-6.912v-12.732q0-1.837 2.319-1.837t2.319 1.837v12.775q0 3.325 6.475 3.325h8.312q6.475 0 6.475-3.325v-12.775q0-1.837 2.319-1.837 2.363 0 2.363 1.837v12.732q0 6.912-11.288 6.912h-8.006zm40.775 0q-9.363 0-9.363-5.819v-2.493q0-5.775 9.363-5.775h18.594v-.657q0-3.062-5.382-3.062h-6.168q-2.188 0-2.188-1.706 0-1.75 2.188-1.75h6.168q9.932 0 9.932 6.518v8.575q0 6.17-9.538 6.17h-13.606zm13.344-3.412q5.25 0 5.25-2.888v-4.769h-18.244q-5.119 0-5.119 2.67v2.274q0 2.713 5.119 2.713h12.994zm51.168-1.488q0 4.9-9.974 4.9h-17.063q-2.187 0-2.187-1.706t2.187-1.706h17.063q5.381 0 5.381-1.488v-2.45q0-1.487-5.381-1.487h-9.013q-9.975 0-9.975-4.77v-2.055q0-5.6 10.282-5.6h5.993q2.232 0 2.232 1.75 0 .875-.613 1.312-.569.394-1.619.394h-5.993q-5.732 0-5.732 2.144v1.925q0 1.793 5.688 1.793h9.012q9.713 0 9.713 4.463v2.581zm20.854 4.9q-9.362 0-9.362-5.819v-2.493q0-5.775 9.362-5.775h18.594v-.657q0-3.062-5.381-3.062h-6.17q-2.187 0-2.187-1.706 0-1.75 2.188-1.75h6.169q9.93 0 9.93 6.518v8.575q0 6.17-9.537 6.17h-13.606zm13.344-3.412q5.25 0 5.25-2.888v-4.769h-18.244q-5.119 0-5.119 2.67v2.274q0 2.713 5.12 2.713h12.993zm22.95-10.895q0-6.955 11.288-6.955h3.369q2.23 0 2.23 1.793 0 1.794-2.23 1.794h-3.544q-6.475 0-6.475 3.281v12.775q0 1.838-2.319 1.838t-2.319-1.838v-12.687z" style="-inkscape-font-specification:'Neuropol X';text-align:start" font-weight="400" font-size="43.75" font-family="Neuropol X" letter-spacing="5" word-spacing="0" fill="#263238"/></g><g transform="translate(-323.102 150.754) scale(.05297)"><circle r="1485" cy="-1361.257" cx="8317.357" fill="#fff"/><path d="M8560.382-1361.303a242.947 242.947 0 0 1-242.947 242.948 242.947 242.947 0 0 1-242.947-242.948 242.947 242.947 0 0 1 242.947-242.946 242.947 242.947 0 0 1 242.947 242.946z" fill="#263238"/><path d="M9395.876-1984.028a1245.372 1245.372 0 0 0-190.842-249.497l-280.862 162.156c-87.542-74.78-187.035-132.06-293.24-169.953-95.887 97.176-172.06 205.76-226.968 323.849 312.641-21.278 635.532 91.872 935.29 326.072l176.761-102.054a1245.372 1245.372 0 0 0-120.14-290.573z" fill="#1976d2"/><path d="M9395.947-738.704a1245.372 1245.372 0 0 0 120.65-290.022l-280.861-162.156c20.99-113.203 20.848-228.006.563-338.93-132.101-34.452-264.224-46.128-393.945-34.635 174.747 260.117 238.202 596.323 185.258 973.02l176.761 102.054a1245.372 1245.372 0 0 0 191.574-249.33z" fill="#42a5f5"/><path d="M8317.501-115.98a1245.372 1245.372 0 0 0 311.492-40.525v-324.31c108.532-38.425 207.883-95.948 293.803-168.978-36.214-131.63-92.163-251.89-166.977-358.484-137.894 281.394-397.33 504.45-750.032 646.949v204.106a1245.372 1245.372 0 0 0 311.714 41.242z" fill="#1976d2"/><path d="M7238.983-738.58a1245.372 1245.372 0 0 0 190.841 249.498l280.862-162.156c87.542 74.78 187.035 132.059 293.24 169.953 95.887-97.177 172.06-205.76 226.968-323.849-312.641 21.277-635.531-91.872-935.29-326.072l-176.761 102.053a1245.372 1245.372 0 0 0 120.14 290.574z" fill="#42a5f5"/><path d="M7238.91-1983.903a1245.372 1245.372 0 0 0-120.65 290.022l280.862 162.155c-20.99 113.204-20.848 228.007-.563 338.93 132.101 34.453 264.224 46.129 393.945 34.636-174.747-260.117-238.201-596.323-185.258-973.021l-176.761-102.053a1245.372 1245.372 0 0 0-191.574 249.33z" fill="#1976d2"/><path d="M8317.357-2606.628a1245.372 1245.372 0 0 0-311.491 40.525v324.311c-108.532 38.424-207.884 95.948-293.804 168.978 36.214 131.629 92.164 251.889 166.977 358.484 137.895-281.394 397.33-504.45 750.032-646.949v-204.106a1245.372 1245.372 0 0 0-311.714-41.243z" fill="#42a5f5"/></g></svg>